<?xml version="1.0" encoding="utf-8"?>
<!-- Generator: Adobe Illustrator 24.1.2, SVG Export Plug-In . SVG Version: 6.00 Build 0)  -->
<svg version="1.1" id="Ebene_1" xmlns="http://www.w3.org/2000/svg" xmlns:xlink="http://www.w3.org/1999/xlink" x="0px" y="0px"
	 viewBox="0 0 372.6 88.6" style="enable-background:new 0 0 372.6 88.6;" xml:space="preserve">
<style type="text/css">
	.st0{fill:#E30613;}
	.st1{font-family:'Helvetica Neue';}
	.st2{font-size:17.5px;}
	.st3{fill:none;stroke:#000000;stroke-width:1.25;}
</style>
<polygon class="st0" points="17.7,35.4 35.4,35.4 35.4,17.7 53.2,17.7 53.2,35.4 70.9,35.4 70.9,53.1 53.2,53.1 53.2,70.9 
	35.4,70.9 35.4,53.1 17.7,53.1 "/>
<g>
	<path d="M87.6,29.6h2.9c1.9,0,3.6-1.1,3.6-4.4c0-2.9-1-4.8-4.2-4.8h-2.3V29.6z M84.4,17.7h6.3c3.8,0,6.6,2.4,6.6,7.2
		c0,4.2-2.2,7.4-6.6,7.4h-6.3V17.7z"/>
	<path d="M106.2,25.9c-0.3-1.5-0.9-2.2-2.3-2.2c-1.8,0-2.4,1.4-2.4,2.2H106.2z M101.5,27.7c0.1,1.8,1,2.7,2.6,2.7
		c1.2,0,2.1-0.7,2.3-1.4h2.6c-0.8,2.5-2.6,3.6-4.9,3.6c-3.3,0-5.4-2.3-5.4-5.6c0-3.2,2.2-5.6,5.4-5.6c3.6,0,5.3,3,5.1,6.3H101.5z"/>
	<path d="M120.7,32.3H118v-1.5h-0.1c-0.7,1.2-2,1.8-3.2,1.8c-3.1,0-3.9-1.7-3.9-4.4v-6.5h2.9v6c0,1.7,0.5,2.6,1.9,2.6
		c1.6,0,2.3-0.9,2.3-3v-5.5h2.9V32.3z"/>
	<path d="M126.7,21.7h2.1v1.9h-2.1v5.2c0,1,0.2,1.2,1.2,1.2c0.3,0,0.6,0,0.9-0.1v2.3c-0.5,0.1-1.1,0.1-1.7,0.1
		c-1.8,0-3.3-0.4-3.3-2.5v-6.2h-1.8v-1.9h1.8v-3.2h2.9V21.7z"/>
	<path d="M132.7,28.9c0,1.3,1.1,1.8,2.2,1.8c0.8,0,1.9-0.3,1.9-1.4c0-0.9-1.2-1.2-3.3-1.6c-1.7-0.4-3.4-1-3.4-2.8
		c0-2.7,2.3-3.4,4.6-3.4c2.3,0,4.4,0.8,4.7,3.4h-2.8c-0.1-1.1-0.9-1.4-2-1.4c-0.7,0-1.6,0.1-1.6,1c0,1,1.6,1.2,3.3,1.6
		c1.7,0.4,3.4,1,3.4,3c0,2.8-2.4,3.7-4.8,3.7c-2.5,0-4.8-0.9-5-3.7H132.7z"/>
	<path d="M148.5,25.5c-0.2-1.2-0.9-1.8-2.1-1.8c-1.9,0-2.5,1.9-2.5,3.4c0,1.5,0.6,3.3,2.4,3.3c1.4,0,2.1-0.9,2.3-2.1h2.8
		c-0.4,2.8-2.3,4.3-5.1,4.3c-3.2,0-5.3-2.3-5.3-5.4c0-3.3,2-5.7,5.4-5.7c2.5,0,4.8,1.3,5,4H148.5z"/>
	<path d="M153,17.7h2.9v5.5h0.1c0.7-1.2,2-1.8,3.1-1.8c3.1,0,3.9,1.7,3.9,4.4v6.5H160v-6c0-1.7-0.5-2.6-1.9-2.6
		c-1.6,0-2.3,0.9-2.3,3v5.5H153V17.7z"/>
	<path d="M172.1,25.9c-0.3-1.5-0.9-2.2-2.3-2.2c-1.8,0-2.4,1.4-2.4,2.2H172.1z M167.4,27.7c0.1,1.8,1,2.7,2.6,2.7
		c1.2,0,2.1-0.7,2.3-1.4h2.6c-0.8,2.5-2.6,3.6-4.9,3.6c-3.3,0-5.4-2.3-5.4-5.6c0-3.2,2.2-5.6,5.4-5.6c3.6,0,5.3,3,5.1,6.3H167.4z"/>
	<path d="M179,28.9c0,1.3,1.1,1.8,2.2,1.8c0.8,0,1.9-0.3,1.9-1.4c0-0.9-1.2-1.2-3.3-1.6c-1.7-0.4-3.4-1-3.4-2.8
		c0-2.7,2.3-3.4,4.6-3.4c2.3,0,4.4,0.8,4.7,3.4H183c-0.1-1.1-0.9-1.4-2-1.4c-0.7,0-1.6,0.1-1.6,1c0,1,1.6,1.2,3.3,1.6
		c1.7,0.4,3.4,1,3.4,3c0,2.8-2.4,3.7-4.8,3.7c-2.5,0-4.8-0.9-5-3.7H179z"/>
	<path d="M87.6,43.5h3.5c1.4,0,2.2-0.6,2.2-2.1c0-1.4-0.8-2-2.2-2h-3.5V43.5z M84.4,36.8h7.9c2.6,0,4.3,1.8,4.3,4
		c0,1.7-0.7,3-2.3,3.7v0c1.6,0.4,2,1.9,2.1,3.4c0.1,0.9,0,2.6,0.6,3.5h-3.2c-0.4-0.9-0.3-2.3-0.5-3.5c-0.2-1.5-0.8-2.2-2.4-2.2h-3.2
		v5.7h-3.2V36.8z"/>
	<path d="M103.8,49.5c2,0,2.6-1.7,2.6-3.4c0-1.7-0.6-3.4-2.6-3.4c-2,0-2.6,1.7-2.6,3.4C101.2,47.9,101.8,49.5,103.8,49.5
		 M103.8,40.6c3.3,0,5.5,2.2,5.5,5.6c0,3.4-2.1,5.6-5.5,5.6c-3.3,0-5.5-2.2-5.5-5.6C98.3,42.8,100.4,40.6,103.8,40.6"/>
	<path d="M114.8,40.9h2.1v1.9h-2.1v5.2c0,1,0.2,1.2,1.2,1.2c0.3,0,0.6,0,0.9-0.1v2.3c-0.5,0.1-1.1,0.1-1.7,0.1
		c-1.8,0-3.3-0.4-3.3-2.5v-6.2h-1.8v-1.9h1.8v-3.2h2.9V40.9z"/>
	<path d="M125.5,45c-0.3-1.5-0.9-2.3-2.3-2.3c-1.8,0-2.4,1.4-2.4,2.3H125.5z M120.7,46.9c0.1,1.8,1,2.7,2.6,2.7
		c1.2,0,2.1-0.7,2.3-1.4h2.6c-0.8,2.5-2.6,3.6-4.9,3.6c-3.3,0-5.4-2.3-5.4-5.6c0-3.2,2.2-5.6,5.4-5.6c3.6,0,5.3,3,5.1,6.3H120.7z"/>
	<path d="M132.3,48c0,1.3,1.1,1.8,2.2,1.8c0.8,0,1.9-0.3,1.9-1.3c0-0.9-1.2-1.2-3.3-1.6c-1.7-0.4-3.4-1-3.4-2.8
		c0-2.7,2.3-3.4,4.6-3.4c2.3,0,4.4,0.8,4.7,3.4h-2.8c-0.1-1.1-0.9-1.4-2-1.4c-0.7,0-1.6,0.1-1.6,1c0,1,1.6,1.2,3.3,1.6
		c1.7,0.4,3.4,1,3.4,3c0,2.8-2.4,3.7-4.8,3.7c-2.5,0-4.8-0.9-5-3.7H132.3z"/>
</g>
<polygon points="84.4,56 87.6,56 87.6,62 93.3,56 97.3,56 91.6,61.7 97.9,70.6 93.8,70.6 89.4,64 87.6,65.9 87.6,70.6 84.4,70.6 "/>
<g>
	<path d="M98.8,60h2.8v2h0c0.5-1.3,2-2.3,3.4-2.3c0.2,0,0.4,0,0.6,0.1v2.7c-0.3-0.1-0.7-0.1-1-0.1c-2.1,0-2.9,1.5-2.9,3.4v4.8h-2.9
		V60z"/>
	<path d="M113.6,64.2c-0.3-1.5-0.9-2.3-2.3-2.3c-1.8,0-2.4,1.4-2.4,2.3H113.6z M108.8,66c0.1,1.8,1,2.7,2.6,2.7
		c1.2,0,2.1-0.7,2.3-1.4h2.6c-0.8,2.5-2.6,3.6-4.9,3.6c-3.3,0-5.4-2.3-5.4-5.6c0-3.2,2.2-5.6,5.4-5.6c3.6,0,5.3,3,5.1,6.3H108.8z"/>
	<path d="M127.9,70.6h-2.8v-1.5h-0.1c-0.7,1.2-2,1.8-3.2,1.8c-3.1,0-3.9-1.7-3.9-4.4V60h2.9v6c0,1.7,0.5,2.6,1.9,2.6
		c1.6,0,2.3-0.9,2.3-3V60h2.9V70.6z"/>
</g>
<polygon points="129.5,68.4 135,62.2 129.9,62.2 129.9,60 138.8,60 138.8,62.2 133.3,68.4 139.2,68.4 139.2,70.6 129.5,70.6 "/>
<text transform="matrix(1 0 0 1 220.6749 30.5907)" class="st1 st2">Landesverband </text>
<text transform="matrix(1 0 0 1 220.6749 50.5926)" class="st1 st2">Brandenburg e.V.</text>
<text transform="matrix(1 0 0 1 333.1056 50.5926)" class="st1 st2"> </text>
<line class="st3" x1="204.1" y1="70.9" x2="204.1" y2="17.7"/>
</svg>
